<svg xmlns="http://www.w3.org/2000/svg" enable-background="new 0 0 2048 2048" viewBox="0 0 2048 2048" id="api"><path fill="#e1efff" d="M1732,1596.97H316c-33.14,0-60-26.86-60-60V511.03c0-33.14,26.86-60,60-60h1416c33.14,0,60,26.86,60,60
					v1025.94C1792,1570.11,1765.14,1596.97,1732,1596.97z"></path><path fill="#f7e07f" d="M1792,654.8H256v0V512.96c0-34.2,27.73-61.94,61.94-61.94h1412.13c34.21,0,61.94,27.74,61.94,61.94V654.8
						L1792,654.8z"></path><path fill="#e6c86b" d="M1652.52,577.69h-616.26c-13.68,0-24.77-11.09-24.77-24.77c0-13.68,11.09-24.77,24.77-24.77h616.26
							c13.68,0,24.77,11.09,24.77,24.77C1677.3,566.6,1666.21,577.69,1652.52,577.69z"></path><circle cx="425.94" cy="552.92" r="30.46" fill="#e6c86b"></circle><circle cx="553.42" cy="552.92" r="30.46" fill="#e6c86b"></circle><circle cx="680.91" cy="552.92" r="30.46" fill="#e6c86b"></circle><g><path fill="#72b8ce" d="M931.86 1336.02L771.73 897.17c-5.62-15.13-16.88-22.5-34.4-22.5-16.54 0-27.31 7.14-32.92 21.83l-165.43 439.62c-2.26 5.86-3.39 11.74-3.39 17.53 0 6.42 2.36 11.8 7.21 16.44 4.94 4.73 10.75 7.02 17.76 7.02 12.41 0 21.19-7.6 26.84-23.23l47.6-129.21 1.45-3.93h4.18 189.61 4.21l1.43 3.95 46.84 129.18c5.64 15.64 14.42 23.24 26.84 23.24 7.05 0 13.02-2.33 18.23-7.11 5.04-4.64 7.5-9.99 7.5-16.35C935.29 1348.34 934.14 1342.41 931.86 1336.02zM810.6 1174.57H663.3h-8.55l2.91-8.04 73.27-202.45 5.61-15.51 5.66 15.49 74.03 202.45 2.95 8.06H810.6zM1307.38 906.17l-.04-.02-.04-.02c-25.56-17.36-62.04-26.16-108.43-26.16h-145.79c-12.14 0-21.19 2.9-26.92 8.63-5.73 5.73-8.63 14.78-8.63 26.92v426.05c0 12.37 2.4 21.57 7.14 27.36 4.51 5.51 11.33 8.19 20.85 8.19 9.52 0 16.35-2.68 20.85-8.19 4.74-5.79 7.14-15 7.14-27.36v-165.44-6h6 135.98c22.08 0 42.24-3.37 59.92-10 17.56-6.59 33.21-16.62 46.52-29.81 13.3-13.18 23.42-28.61 30.07-45.86 6.69-17.35 10.08-37.09 10.08-58.66 0-25.19-5.03-49.01-14.95-70.79C1337.35 933.51 1323.97 917.08 1307.38 906.17zM1264.62 1108.02c-15.68 9.2-38.17 13.67-68.76 13.67h-116.33-6v-6-181.3-6h6 116.33c23.55 0 40.77 2.09 52.64 6.39 38.23 13.48 57.61 43.84 57.61 90.25C1306.1 1063.91 1292.14 1091.83 1264.62 1108.02zM1484.42 874.67c-9.52 0-16.34 2.68-20.85 8.19-4.74 5.79-7.14 15-7.14 27.36v431.34c0 12.37 2.4 21.57 7.14 27.36 4.51 5.51 11.33 8.19 20.85 8.19 9.52 0 16.34-2.68 20.85-8.19 4.74-5.79 7.14-15 7.14-27.36V910.22c0-12.36-2.4-21.57-7.14-27.36C1500.76 877.35 1493.94 874.67 1484.42 874.67z"></path></g></svg>